<svg xmlns="http://www.w3.org/2000/svg" id="Layer_2" viewBox="0 0 93.49 30.93"><defs><style>.cls-1{fill:#010101;}.cls-1,.cls-2,.cls-3,.cls-4,.cls-5,.cls-6,.cls-7{stroke-width:0px;}.cls-2,.cls-8{fill:#ec008c;}.cls-3{fill:none;}.cls-9{letter-spacing:-.08em;}.cls-10{letter-spacing:0em;}.cls-4{fill:#030302;}.cls-11{letter-spacing:-.1em;}.cls-5{fill:#000810;}.cls-12{letter-spacing:-.09em;}.cls-8{font-family:GillSans-Medium, &apos;Gill Sans&apos;;font-size:3.88px;font-weight:500;}.cls-13{letter-spacing:-.06em;}.cls-6{fill:#fff;}.cls-7{fill:#00aeef;}</style></defs><g id="Layer_1-2"><polygon class="cls-6" points="9.08 15.23 9.08 15.23 9.08 15.23 9.08 15.23"/><path class="cls-6" d="M16.73,18.03c-.36.95-1.18,1.84-2.25,1.87-1.33.04-2.07-1.24-2.31-2.39.53.96,1.57,1.96,2.74,1.56,1.11-.38,1.74-1.62,1.2-2.73-.33-.69-1.05-1.05-1.81-.91-.56.1-.96.57-.96,1.14.43-.44,1.19-.55,1.43.16.12.36-.12.86-.5.94-.37.08-.75-.18-.99-.42-.39-.38-.55-.85-.78-1.33-.22-.45-.51-.87-.86-1.23-.4-.41-.88-.74-1.41-.93-.33.06-.72.07-1.13.07h0c.39.25.71.64.97,1,.53.73.87,1.59,1.12,2.46.14.51.21,1.03.41,1.52.21.52.53,1.01.96,1.38.6.51,1.37.68,2.14.56,1.24-.2,2.1-1.33,2.05-2.57,0-.04,0-.08,0-.13Z"/><path class="cls-6" d="M15.21,13.46s-.93-.07-2.17-1.13c-.68-.58-1.33-.75-1.79-.78.09.26.14.54.14.83,0,.59-.19.93-.51,1.14,2.45,1.57,4.33-.05,4.33-.05Z"/><path class="cls-6" d="M7.95,13.74c-.53.2-1.01.52-1.41.94-.35.36-.64.78-.86,1.23-.23.47-.39.95-.78,1.33-.25.25-.62.5-.99.42-.39-.08-.63-.58-.5-.94.24-.71,1-.6,1.43-.16,0-.57-.41-1.03-.96-1.14-.76-.14-1.47.23-1.81.91-.54,1.11.09,2.35,1.2,2.73,1.17.4,2.22-.6,2.74-1.56-.24,1.15-.98,2.43-2.31,2.39-1.07-.03-1.89-.92-2.25-1.87,0,.04,0,.09,0,.13-.05,1.24.81,2.37,2.05,2.57.77.12,1.54-.05,2.14-.56.43-.37.74-.86.96-1.38.2-.49.27-1.01.41-1.52.25-.87.59-1.73,1.12-2.46.26-.36.58-.75.98-1h0c-.41,0-.8-.01-1.14-.07Z"/><path class="cls-6" d="M7.3,13.51c-.31-.21-.5-.55-.5-1.13,0-.29.05-.57.14-.83-.46.03-1.12.19-1.81.78-1.24,1.06-2.17,1.13-2.17,1.13,0,0,1.88,1.63,4.34.05Z"/><polygon class="cls-6" points="9.09 15.23 9.08 15.23 9.09 15.23 9.09 15.23"/><polygon class="cls-6" points="9.09 15.23 9.08 15.23 9.08 15.23 9.08 15.23 9.09 15.23"/><path class="cls-2" d="M9.08,13.2c.86,0,1.56-.05,1.56-.91s-.7-1.55-1.56-1.55-1.56.7-1.56,1.55.7.91,1.55.91Z"/><path class="cls-3" d="M7.3,13.51c-.31-.21-.5-.55-.5-1.13,0-.29.05-.57.14-.83-.46.03-1.12.19-1.81.78-1.24,1.06-2.17,1.13-2.17,1.13,0,0,1.88,1.63,4.34.05Z"/><path class="cls-3" d="M7.53,12.29c0,.86.7.91,1.55.91s1.56-.05,1.56-.91-.7-1.55-1.56-1.55-1.56.7-1.56,1.55Z"/><path class="cls-3" d="M7.95,13.74c-.53.2-1.01.52-1.41.94-.35.36-.64.78-.86,1.23-.23.47-.39.95-.78,1.33-.25.25-.62.5-.99.42-.39-.08-.63-.58-.5-.94.24-.71,1-.6,1.43-.16,0-.57-.41-1.03-.96-1.14-.76-.14-1.47.23-1.81.91-.54,1.11.09,2.35,1.2,2.73,1.17.4,2.22-.6,2.74-1.56-.24,1.15-.98,2.43-2.31,2.39-1.07-.03-1.89-.92-2.25-1.87,0,.04,0,.09,0,.13-.05,1.24.81,2.37,2.05,2.57.77.12,1.54-.05,2.14-.56.43-.37.74-.86.96-1.38.2-.49.27-1.01.41-1.52.25-.87.59-1.73,1.12-2.46.26-.36.58-.75.98-1h0c-.41,0-.8-.01-1.14-.07Z"/><path class="cls-3" d="M16.73,18.03c-.36.95-1.18,1.84-2.25,1.87-1.33.04-2.07-1.24-2.31-2.39.53.96,1.57,1.96,2.74,1.56,1.11-.38,1.74-1.62,1.2-2.73-.33-.69-1.05-1.05-1.81-.91-.56.1-.96.57-.96,1.14.43-.44,1.19-.55,1.43.16.12.36-.12.86-.5.94-.37.08-.75-.18-.99-.42-.39-.38-.55-.85-.78-1.33-.22-.45-.51-.87-.86-1.23-.4-.41-.88-.74-1.41-.93-.33.06-.72.07-1.13.07h0c.39.25.71.64.97,1,.53.73.87,1.59,1.12,2.46.14.51.21,1.03.41,1.52.21.52.53,1.01.96,1.38.6.51,1.37.68,2.14.56,1.24-.2,2.1-1.33,2.05-2.57,0-.04,0-.08,0-.13Z"/><path class="cls-3" d="M10.88,13.51c2.45,1.57,4.33-.05,4.33-.05,0,0-.93-.07-2.17-1.13-.68-.58-1.33-.75-1.79-.78.09.26.14.54.14.83,0,.59-.19.93-.51,1.14Z"/><path class="cls-7" d="M14.93,11.94L9.08,2.03,3.25,11.94c1.98-.91,4.24-1.72,5.82-1.72s3.88.81,5.86,1.72ZM9.29,6.18h1.14v1.14h-1.14v-1.14ZM9.29,7.74h1.14v1.14h-1.14v-1.14ZM8.87,8.88h-1.14v-1.14h1.14v1.14ZM8.87,7.32h-1.14v-1.14h1.14v1.14Z"/><rect class="cls-1" x="7.73" y="6.18" width="1.14" height="1.14"/><rect class="cls-1" x="7.73" y="7.74" width="1.14" height="1.14"/><rect class="cls-1" x="9.29" y="6.18" width="1.14" height="1.14"/><rect class="cls-1" x="9.29" y="7.74" width="1.14" height="1.14"/><path class="cls-7" d="M14.19,22.4c-1.8,0-2.61,1.25-2.93,1.99h5.84c-.31-.74-1.11-1.99-2.9-1.99Z"/><path class="cls-3" d="M10.06,14.81c.53.73.87,1.59,1.12,2.46.14.51.21,1.03.41,1.52.21.52.53,1.01.96,1.38.6.51,1.37.68,2.14.56,1.24-.2,2.1-1.33,2.05-2.57,0-.04,0-.08,0-.13-.36.95-1.18,1.84-2.25,1.87-1.33.04-2.07-1.24-2.31-2.39.53.96,1.57,1.96,2.74,1.56,1.11-.38,1.74-1.62,1.2-2.73-.33-.69-1.05-1.05-1.81-.91-.56.1-.96.57-.96,1.14.43-.44,1.19-.55,1.43.16.12.36-.12.86-.5.94-.37.08-.75-.18-.99-.42-.39-.38-.55-.85-.78-1.33-.22-.45-.51-.87-.86-1.23-.4-.41-.88-.74-1.41-.93-.33.06-.72.07-1.13.07h0c.39.25.71.64.97,1Z"/><path class="cls-3" d="M5.62,20.17c.43-.37.74-.86.96-1.38.2-.49.27-1.01.41-1.52.25-.87.59-1.73,1.12-2.46.26-.36.58-.75.98-1h0c-.41,0-.8-.01-1.14-.07-.53.2-1.01.52-1.41.94-.35.36-.64.78-.86,1.23-.23.47-.39.95-.78,1.33-.25.25-.62.5-.99.42-.39-.08-.63-.58-.5-.94.24-.71,1-.6,1.43-.16,0-.57-.41-1.03-.96-1.14-.76-.14-1.47.23-1.81.91-.54,1.11.09,2.35,1.2,2.73,1.17.4,2.22-.6,2.74-1.56-.24,1.15-.98,2.43-2.31,2.39-1.07-.03-1.89-.92-2.25-1.87,0,.04,0,.09,0,.13-.05,1.24.81,2.37,2.05,2.57.77.12,1.54-.05,2.14-.56Z"/><path class="cls-3" d="M7.3,13.51c-.31-.21-.5-.55-.5-1.13,0-.29.05-.57.14-.83-.46.03-1.12.19-1.81.78-1.24,1.06-2.17,1.13-2.17,1.13,0,0,1.88,1.63,4.34.05Z"/><path class="cls-3" d="M10.88,13.51c2.45,1.57,4.33-.05,4.33-.05,0,0-.93-.07-2.17-1.13-.68-.58-1.33-.75-1.79-.78.09.26.14.54.14.83,0,.59-.19.93-.51,1.14Z"/><polygon class="cls-3" points="9.09 15.23 9.08 15.23 9.08 15.23 9.08 15.23 9.08 15.23 9.09 15.23 9.09 15.23"/><path class="cls-3" d="M14.93,11.94L9.08,2.03,3.25,11.94c1.98-.91,4.24-1.72,5.82-1.72s3.88.81,5.86,1.72Z"/><path class="cls-3" d="M7.53,12.29c0,.86.7.91,1.55.91s1.56-.05,1.56-.91-.7-1.55-1.56-1.55-1.56.7-1.56,1.55Z"/><path class="cls-3" d="M4,22.4c-1.81,0-2.62,1.25-2.94,1.99h5.84c-.31-.74-1.11-1.99-2.91-1.99Z"/><path class="cls-3" d="M14.19,22.4c-1.8,0-2.61,1.25-2.93,1.99h5.84c-.31-.74-1.11-1.99-2.9-1.99Z"/><path class="cls-6" d="M11.55,20.64c-.71.47-.18,1.19-.18,1.19.15-.53.64-.18.64-.18.14.13.2.25.2.36.28-.16.6-.29.95-.37-.09-.79-.97-1.42-1.61-1Z"/><path class="cls-6" d="M10.7,20.02c.65-3.21-1.56-4.76-1.62-4.8,0,0,0,0,0,0,1.81,2.41.59,5.2.59,5.2-.73,2.07.12,2.87.98,3.16.16-.27.35-.55.59-.81-1.24-.34-.55-2.76-.55-2.76Z"/><path class="cls-6" d="M7.47,20.02s.73,2.44-.55,2.75c.24.26.43.54.58.81.86-.29,1.72-1.09.99-3.16,0,0-1.21-2.79.59-5.2,0,0,0,0,0,0-.06.04-2.26,1.59-1.62,4.8Z"/><path class="cls-6" d="M6.16,21.65s.49-.35.64.18c0,0,.53-.72-.18-1.19-.63-.42-1.52.21-1.61,1,.35.09.67.21.95.37,0-.11.06-.23.2-.36Z"/><path class="cls-4" d="M18.13,24.74c-.2-.96-1.07-2.65-2.95-3.11,1.44-.42,2.51-1.83,2.51-3.51,0-1.48-.82-2.75-2-3.31.8-.39,1.24-1.13,1.24-1.13L9.08,0l-3.73,6.5v-1.08h-1.15v3.08l-2.97,5.19s.44.73,1.24,1.13c-1.18.57-2,1.84-2,3.31,0,1.68,1.07,3.1,2.51,3.51-1.88.46-2.76,2.14-2.98,3.1-.03.13,0,.27.09.37.08.1.21.17.35.17h7.07c.13,0,.26-.06.34-.16s.12-.24.09-.37c0-.05-.02-.1-.04-.15.39-.09.97-.3,1.17-.75h0s0,0,0,0c.19.45.76.65,1.15.74-.01.05-.03.1-.04.14-.03.13,0,.27.09.37.08.1.21.17.35.17h7.07c.13,0,.26-.06.34-.16.08-.1.12-.24.09-.37ZM11.25,11.55c.46.03,1.11.2,1.79.78,1.24,1.06,2.17,1.13,2.17,1.13,0,0-1.88,1.62-4.33.05.32-.21.51-.55.51-1.14,0-.29-.05-.57-.14-.83ZM9.08,2.03l5.85,9.92c-1.98-.91-4.29-1.72-5.86-1.72s-3.84.81-5.82,1.72L9.08,2.03ZM10.64,12.29c0,.86-.7.91-1.56.91s-1.55-.05-1.55-.91.7-1.55,1.56-1.55,1.56.7,1.56,1.55ZM5.13,12.33c.69-.59,1.35-.75,1.81-.78-.09.26-.14.54-.14.83,0,.58.19.93.5,1.13-2.46,1.58-4.34-.05-4.34-.05,0,0,.93-.07,2.17-1.13ZM1.44,18.16s0-.08,0-.13c.36.95,1.18,1.84,2.25,1.87,1.33.04,2.07-1.24,2.31-2.39-.53.96-1.57,1.96-2.74,1.56-1.11-.38-1.74-1.62-1.2-2.73.33-.69,1.05-1.05,1.81-.91.56.1.96.57.96,1.14-.43-.44-1.19-.55-1.43.16-.12.36.12.86.5.94.37.08.75-.18.99-.42.39-.38.55-.85.78-1.33.22-.45.51-.87.86-1.23.4-.42.88-.74,1.41-.94.34.06.72.07,1.14.07h0c.41,0,.8,0,1.13-.07.53.2,1.01.52,1.41.93.35.36.64.78.86,1.23.23.47.39.95.78,1.33.25.25.62.5.99.42.39-.08.63-.58.5-.94-.24-.71-1-.6-1.43-.16,0-.57.41-1.03.96-1.14.76-.14,1.47.23,1.81.91.54,1.11-.09,2.35-1.2,2.73-1.17.4-2.22-.6-2.74-1.56.24,1.15.98,2.43,2.31,2.39,1.07-.03,1.89-.92,2.25-1.87,0,.04,0,.09,0,.13.05,1.24-.81,2.37-2.05,2.57-.77.12-1.54-.05-2.14-.56-.43-.37-.74-.86-.96-1.38-.2-.49-.27-1.01-.41-1.52-.25-.87-.59-1.73-1.12-2.46-.26-.36-.58-.75-.97-1-.4.25-.72.64-.98,1-.53.73-.87,1.59-1.12,2.46-.14.51-.21,1.03-.41,1.52-.21.52-.53,1.01-.96,1.38-.6.51-1.37.68-2.14.56-1.24-.2-2.1-1.33-2.05-2.57ZM13.16,21.64c-.35.09-.67.21-.95.37,0-.11-.06-.23-.2-.36,0,0-.49-.35-.64.18,0,0-.53-.72.18-1.19.64-.42,1.52.21,1.61,1ZM6.79,21.83c-.15-.53-.64-.18-.64-.18-.14.13-.2.25-.2.36-.28-.16-.6-.29-.95-.37.09-.78.97-1.42,1.61-1,.71.47.18,1.19.18,1.19ZM1.06,24.39c.32-.74,1.13-1.99,2.94-1.99s2.59,1.25,2.91,1.99H1.06ZM10.66,23.59c-.86-.29-1.71-1.09-.98-3.16,0,0,1.21-2.79-.59-5.2-1.81,2.41-.59,5.2-.59,5.2.73,2.07-.13,2.87-.99,3.16-.15-.28-.35-.55-.58-.81,1.28-.31.55-2.75.55-2.75-.65-3.21,1.56-4.76,1.62-4.8,0,0,0,0,0,0,0,0,0,0,0,0h0s0,0,0,0c.06.04,2.26,1.59,1.62,4.8,0,0-.69,2.41.55,2.76-.24.26-.43.53-.59.81ZM11.25,24.39c.33-.74,1.14-1.99,2.93-1.99s2.59,1.25,2.9,1.99h-5.84ZM4.78,5.02c.31,0,.56-.25.56-.57s-.25-.56-.56-.56-.56.25-.56.56.25.57.56.57Z"/><path class="cls-7" d="M4,22.4c-1.81,0-2.62,1.25-2.94,1.99h5.84c-.31-.74-1.11-1.99-2.91-1.99Z"/><path class="cls-5" d="M21.21,25.3v-12.03h3.2v12.03h-3.2Z"/><path class="cls-5" d="M30.15,11.39v4h6.85c.75,0,1.38.63,1.38,1.38s-.63,1.38-1.38,1.38h-6.85v7.15h-3.2v-15.06c0-.88.73-1.6,1.6-1.6h10.78v2.75h-9.18Z"/><path class="cls-5" d="M48.63,25.57c-5.03,0-8.53-3.8-8.53-8.58s3.51-8.61,8.53-8.61,8.53,3.83,8.53,8.61-3.5,8.58-8.53,8.58ZM48.63,11.24c-3.25,0-5.33,2.42-5.33,5.76s2.08,5.73,5.33,5.73,5.35-2.4,5.35-5.73-2.1-5.76-5.35-5.76Z"/><path class="cls-5" d="M86.53,25.3v-10.53l-3.91,6.25c-.2.3-.6.68-1.25.68s-1.03-.4-1.23-.7l-3.93-6.23v10.53h-3.08v-15.28c0-.85.63-1.55,1.53-1.55.57,0,1,.25,1.27.67l5.43,8.48,5.43-8.48c.28-.42.73-.67,1.3-.67.85,0,1.5.67,1.5,1.52v15.31h-3.07Z"/><path class="cls-2" d="M24.44,10.18c0,.9-.73,1.64-1.64,1.64s-1.64-.73-1.64-1.64.73-1.64,1.64-1.64,1.64.73,1.64,1.64Z"/><polygon class="cls-7" points="59.58 25.3 68.98 25.3 64.28 13.65 59.58 25.3"/><path class="cls-5" d="M65.63,9.39c-.23-.57-.75-.9-1.35-.9s-1.15.33-1.38.9l-6.47,15.91h3.15l4.7-11.65,4.7,11.65h3.18l-6.53-15.91Z"/><text class="cls-8" transform="translate(0 30.02)"><tspan class="cls-9" x="0" y="0">Y</tspan><tspan x="2.03" y="0">OUR HOME COMFO</tspan><tspan class="cls-12" x="37.49" y="0">R</tspan><tspan class="cls-10" x="39.49" y="0">T &amp; EFFiCiENCY iNSUL</tspan><tspan class="cls-11" x="78.01" y="0">A</tspan><tspan class="cls-13" x="80.21" y="0">T</tspan><tspan x="82.29" y="0">ORS</tspan></text><path class="cls-1" d="M93.49,9.31c0,.67-.53,1.2-1.21,1.2s-1.22-.53-1.22-1.2.54-1.18,1.22-1.18,1.21.53,1.21,1.18ZM91.36,9.31c0,.53.39.95.92.95s.9-.42.9-.94-.38-.95-.91-.95-.92.43-.92.95ZM92.09,9.93h-.27v-1.18c.11-.02.26-.04.46-.04.22,0,.33.04.41.09.07.05.12.14.12.26,0,.13-.1.23-.25.27h0c.12.06.18.14.22.3.04.18.06.25.09.3h-.3s-.06-.15-.09-.29c-.02-.13-.09-.19-.25-.19h-.13v.48ZM92.1,9.26h.13c.15,0,.27-.05.27-.17,0-.11-.08-.18-.25-.18-.07,0-.12,0-.15.01v.34Z"/></g></svg>