<svg viewBox="0 0 24 24" class="blk icn " role="presentation" data-use="/cms/svg/site/2r52fvbsqht.24.2411081020590.svg#arrow_right"><path id="np_arrow_2284437_000000" class="st0" d="M19.184 11.88c0-0.24-0.24-0.48-0.36-0.72L7.305 0.48C7.065 0.12 6.704 0 6.344 0C5.865 0 5.504 0.12 5.264 0.36c-0.48 0.36-0.6 1.2-0.24 1.68c0 0.12 0.12 0.12 0.24 0.24L15.824 12l-10.56 9.84c-0.48 0.36-0.6 1.2-0.24 1.68c0 0.12 0.12 0.12 0.24 0.24C5.504 23.88 5.865 24 6.344 24c0.36 0 0.72-0.12 0.96-0.48l11.52-10.68C19.064 12.6 19.184 12.24 19.184 11.88L19.184 11.88z"/></svg>