<svg viewBox="0 0 24 24" class="blk icn clr-pry" role="presentation" data-use="/cms/svg/site/2r52fvbsqht.24.2411081020590.svg#drill"><path d="M23.999 0.567V23.479a0.543 0.543 0 0 1-1.085 0V0.567a0.543 0.543 0 1 1 1.085 0M21.045 11.651a0.542 0.542 0 0 0-0.543 0.543V23.479a0.543 0.543 0 0 0 1.085 0V12.192a0.542 0.542 0 0 0-0.543-0.543m-2.411 2.266a0.542 0.542 0 0 0-0.543 0.543V23.479a0.543 0.543 0 0 0 1.085 0V14.459a0.543 0.543 0 0 0-0.543-0.543m0-9.305A0.543 0.543 0.001 0 0 19.176 4.067V0.567a0.543 0.543 0 0 0-1.085 0V4.067a0.542 0.542 0 0 0 0.543 0.543m2.955 4.122v1.062a0.543 0.543 0 0 1-0.311 0.491l-2.372 1.123l-0.632 1.054a0.542 0.542 0 0 1-0.465 0.263H8.073c0.073 0.96 0.352 3.018 1.411 4.423a0.543 0.543 0 0 1-0.868 0.653c-1.265-1.68-1.564-4.032-1.632-5.076h-0.701l-2.16 5.938A2.123 2.123 0.001 1 1 0.13 17.211L2.823 9.811H1.086v0.985a0.543 0.543 0 0 1-1.085 0V7.742a0.543 0.543 0 1 1 1.085 0V8.726H3.217l0.935-2.567a0.542 0.542 0 0 1 0.51-0.357H17.808a0.542 0.542 0 0 1 0.465 0.263l0.632 1.053l2.372 1.123a0.543 0.543 0 0 1 0.311 0.491"/></svg>