<svg viewBox="0 0 36 36" class="blk itm" data-use="/cms/svg/site/2r52fvbsqht.36.2411081020590.svg#youtube"><path d="M22.077 24.993c0-0.884-0.262-1.346-0.784-1.346a1.287 1.287 0 0 0-0.905 0.442v6.049a1.29 1.29 0 0 0 0.905 0.443c0.522 0 0.784-0.443 0.784-1.346Zm6.787 0.021c0-0.905-0.301-1.366-0.903-1.366s-0.905 0.461-0.905 1.366v0.923h1.808ZM9.466 20.632v11.428H7.457V20.632h-2.11V18.747h6.266V20.632Zm5.784 11.428v-1.086a2.915 2.915 0 0 1-2.048 1.225a1.099 1.099 0 0 1-1.165-0.744a4.868 4.868 0 0 1-0.16-1.466v-7.852h1.787v7.316a4.54 4.54 0 0 0 0.021 0.703c0.039 0.281 0.181 0.422 0.422 0.422q0.543 0 1.145-0.844v-7.597h1.787v9.921Zm8.616-2.973a7.078 7.078 0 0 1-0.181 2.008a1.407 1.407 0 0 1-1.427 1.104a2.476 2.476 0 0 1-1.867-1.104v0.964h-1.787V18.747h1.787v4.361a2.439 2.439 0 0 1 1.867-1.085a1.407 1.407 0 0 1 1.427 1.125a6.839 6.839 0 0 1 0.181 1.988Zm6.787-0.201a7.942 7.942 0 0 1-0.039 1.165a2.307 2.307 0 0 1-0.422 1.086a2.486 2.486 0 0 1-2.168 1.064a2.552 2.552 0 0 1-2.168-1.024a3.777 3.777 0 0 1-0.582-2.33v-3.475a3.827 3.827 0 0 1 0.563-2.33a2.745 2.745 0 0 1 4.277 0a3.979 3.979 0 0 1 0.542 2.33v2.069h-3.595v1.746c0 0.924 0.301 1.387 0.924 1.387a0.771 0.771 0 0 0 0.802-0.723a10.44 10.44 0 0 0 0.041-1.225h1.829Zm-12.21-18.336c0 0.923-0.262 1.407-0.864 1.407s-0.864-0.483-0.864-1.407v-4.221c0-0.924 0.281-1.387 0.864-1.387s0.864 0.461 0.864 1.387Zm14.44 15.083a31.578 31.578 0 0 0-0.522-7.034a3.777 3.777 0 0 0-3.213-2.93a154.49 154.49 0 0 0-22.272 0a3.799 3.799 0 0 0-3.236 2.93a32.754 32.754 0 0 0-0.523 7.034h0a31.58 31.58 0 0 0 0.523 7.034a3.731 3.731 0 0 0 3.213 2.912a147.752 147.752 0 0 0 22.292 0a3.752 3.752 0 0 0 3.213-2.912A32.92 32.92-1038.99 0 0 32.881 25.634Zm-20.042-25.626l-1.366 5.283l-1.427-5.283h-2.129c0.422 1.245 0.864 2.51 1.306 3.755a32.175 32.175 0 0 1 1.224 4.257v5.443h2.008v-5.443l2.43-8.019Zm7.43 6.688a3.9 3.9 0 0 0-0.563-2.349a2.704 2.704 0 0 0-4.237 0a3.898 3.898 0 0 0-0.563 2.349v3.517a4.005 4.005 0 0 0 0.563 2.371a2.704 2.704 0 0 0 4.237 0a3.967 3.967 0 0 0 0.563-2.371Zm6.728-3.253h-1.829v7.65c-0.402 0.582-0.784 0.864-1.144 0.864-0.241 0-0.381-0.16-0.422-0.442a4.679 4.679 0 0 1-0.02-0.703v-7.371h-1.829v7.912a5.08 5.08 0 0 0 0.16 1.505a1.14 1.14 0 0 0 1.185 0.744a2.88 2.88 0 0 0 2.068-1.245v1.104h1.829Z"/></svg>