<svg viewBox="0 0 16 16" class="blk icn icn clr-pry" role="presentation" data-use="/cms/svg/site/2r52fvbsqht.16.2411081020592.svg#commercial"><path d="M10.674 2.541V15.986H15.564A0.436 0.436 0 0 0 16 15.55V4.405a0.436 0.436 0 0 0-0.267-0.402L11.28 2.139a0.436 0.436 0 0 0-0.605 0.402m3.73 11.298H12.27a0.371 0.371 0 1 1 0-0.742h2.133a0.371 0.371 0 1 1 0 0.742m0-1.926H12.27a0.371 0.371 0 1 1 0-0.742h2.133a0.371 0.371 0 1 1 0 0.742m0-1.926H12.27a0.371 0.371 0 1 1 0-0.742h2.133a0.371 0.371 0 1 1 0 0.742m0-1.925H12.27a0.371 0.371 0 1 1 0-0.742h2.133a0.371 0.371 0 1 1 0 0.742m0-1.926H12.27a0.371 0.371 0 1 1 0-0.742h2.133a0.371 0.371 0 1 1 0 0.742M0 2.48V15.549a0.436 0.436 0 0 0 0.436 0.436H3.59V13.143a0.291 0.291 0 0 1 0.291-0.291h1.96a0.291 0.291 0 0 1 0.291 0.291v2.843h3.59V0.451A0.436 0.436 0 0 0 9.19 0.026L0.338 2.055A0.436 0.436 0 0 0 0 2.48M4.042 11.33a0.271 0.271 0 0 1-0.271 0.271H2.32a0.272 0.272 0 0 1-0.272-0.272V9.986a0.272 0.272 0 0 1 0.272-0.272H3.771a0.272 0.272 0 0 1 0.272 0.272Zm0-3a0.271 0.271 0 0 1-0.271 0.271H2.32a0.272 0.272 0 0 1-0.272-0.272V6.984a0.272 0.272 0 0 1 0.272-0.272H3.771a0.272 0.272 0 0 1 0.272 0.272Zm0-3a0.272 0.272 0 0 1-0.272 0.272H2.32a0.272 0.272 0 0 1-0.272-0.272V3.983A0.272 0.272 0 0 1 2.32 3.712H3.771a0.272 0.272 0 0 1 0.272 0.272Zm3.63 6.002a0.271 0.271 0 0 1-0.271 0.271H5.952a0.272 0.272 0 0 1-0.272-0.272V9.986a0.272 0.272 0 0 1 0.272-0.272H7.4a0.272 0.272 0 0 1 0.272 0.272Zm0-3a0.272 0.272 0 0 1-0.272 0.272H5.952a0.272 0.272 0 0 1-0.272-0.272V6.984a0.272 0.272 0 0 1 0.272-0.272H7.4a0.272 0.272 0 0 1 0.272 0.272Zm0-3a0.272 0.272 0 0 1-0.272 0.272H5.952a0.272 0.272 0 0 1-0.272-0.272V3.983a0.272 0.272 0 0 1 0.272-0.272H7.4a0.272 0.272 0 0 1 0.272 0.272Z"/></svg>