<svg viewBox="0 0 24 24" class="mrg_rt-20" role="presentation" data-use="/cms/svg/site/2r52fvbsqht.24.2411081020590.svg#pause"><path d="M20.501 3.53A11.999 11.999 0.001 0 0 3.531 3.499A11.583 11.583 0.001 0 0 0.001 11.999A11.999 11.999 0.001 1 0 20.501 3.53M10.445 16.23a0.648 0.648 0 0 1-0.648 0.648H7.891a0.648 0.648 0 0 1-0.648-0.648v-8.46a0.648 0.648 0 0 1 0.648-0.648h1.907a0.648 0.648 0 0 1 0.648 0.648Zm6.312 0a0.648 0.648 0 0 1-0.648 0.648H14.202a0.648 0.648 0 0 1-0.648-0.648v-8.46a0.648 0.648 0 0 1 0.648-0.648h1.907a0.648 0.648 0 0 1 0.648 0.648Z"/></svg>