<svg xmlns:xlink="http://www.w3.org/1999/xlink" xmlns="http://www.w3.org/2000/svg" viewBox="0 0 24 24" class="blk icn clr-pry" role="presentation" data-use="/cms/svg/site/2r52fvbsqht.24.2411081020590.svg#shield_check" width="48"  height="48" >
	<path transform="translate(0 0.005)" d="M21.178 3.571C17.02 2.894 12.438 0.199 12.392 0.172L12.189 0.052a0.371 0.371 0 0 0-0.378 0l-0.202 0.119C11.564 0.199 6.979 2.894 2.823 3.571l-0.332 0.054A0.371 0.371 2.179 0 0 2.179 3.991V10.659a12.953 12.953 0 0 0 5.032 10.252a40.697 40.697 0 0 0 4.404 2.924l0.2 0.115a0.371 0.371 0 0 0 0.372 0l0.2-0.115a40.695 40.695 0 0 0 4.404-2.924A12.953 12.953 2.179 0 0 21.821 10.659V3.991a0.371 0.371 0 0 0-0.311-0.367Zm-0.476 7.208A11.552 11.552 2.179 0 1 16.214 19.922a36.802 36.802 0 0 1-3.984 2.644l-0.044 0.026a0.371 0.371 0 0 1-0.372 0l-0.044-0.026a36.803 36.803 0 0 1-3.984-2.644a11.552 11.552 0 0 1-4.488-9.142V4.941a0.371 0.371 0 0 1 0.311-0.367L3.686 4.563c3.83-0.624 8.038-3.098 8.081-3.123l0.046-0.027a0.371 0.371 0 0 1 0.378 0l0.046 0.027c0.042 0.025 4.251 2.5 8.081 3.123l0.075 0.012a0.371 0.371 0 0 1 0.311 0.367ZM19.489 5.345A28.759 28.759 2.179 0 1 12.18 2.468a0.371 0.371 0 0 0-0.359 0A28.759 28.759 2.179 0 1 4.513 5.345a0.371 0.371 0 0 0-0.294 0.363V10.778a10.7 10.7 0 0 0 4.128 8.415a34.941 34.941 0 0 0 3.461 2.329a0.372 0.372 0 0 0 0.381 0a34.947 34.947 0 0 0 3.461-2.329a10.7 10.7 0 0 0 4.128-8.415V5.707a0.371 0.371 0 0 0-0.294-0.363m-2.715 4.264L10.882 15.506a0.265 0.265 0 0 1-0.129 0.071a0.24 0.24 0 0 1-0.207-0.088L7.229 12.003a0.207 0.207 0 0 1 0-0.294l0.836-0.836a0.207 0.207 0 0 1 0.294 0l2.3 2.3a0.207 0.207 0 0 0 0.294 0l4.692-4.692a0.207 0.207 0 0 1 0.294 0L16.773 9.315a0.207 0.207 0 0 1 0 0.294" fill="#0097CE"></path>
</svg>