<svg xmlns:xlink="http://www.w3.org/1999/xlink" xmlns="http://www.w3.org/2000/svg" viewBox="0 0 24 24" class="blk icn " role="presentation" data-use="/cms/svg/site/2r52fvbsqht.24.2411081020590.svg#phone" width="27"  height="27" >
	<path d="M6.407 0.948L8.464 5.07a1.715 1.715 0 0 1-0.322 1.98c-0.56 0.56-1.208 1.208-1.664 1.673a1.709 1.709 0 0 0-0.295 2.01l0.013 0.023a20.558 20.558 0 0 0 3.12 3.952a20.6 20.6 0 0 0 3.926 3.108l0.026 0.016a1.713 1.713 0 0 0 2.014-0.304l1.667-1.667a1.715 1.715 0 0 1 1.98-0.322l4.121 2.06a1.715 1.715 0 0 1 0.948 1.533V22.282A1.712 1.712-7.494 0 1 21.83 23.938a32.41 32.41 0 0 1-13.996-7.764A32.422 32.422-7.494 0 1 0.065 2.173A1.712 1.712-7.494 0 1 1.722 0h3.152a1.715 1.715 0 0 1 1.533 0.948Z" fill="#EC008C"></path>
</svg>