<svg xmlns:xlink="http://www.w3.org/1999/xlink" xmlns="http://www.w3.org/2000/svg" viewBox="0 0 16 16" class="blk icn icn clr-pry" role="presentation" data-use="/cms/svg/site/2r52fvbsqht.16.2411081020592.svg#batt_insulation" width="27"  height="27" >
	<path d="M3.098 11.404a1.485 1.485 0 1 0 1.485 1.485a1.486 1.486 0 0 0-1.485-1.485m0 2.248a0.763 0.763 0 1 1 0.762-0.763A0.763 0.763 0 0 1 3.098 13.654M15.64 3.743H6.197V3.112A3.098 3.098 0 0 0 0 3.112V12.889a3.102 3.102 0 0 0 3.098 3.098H15.64a0.36 0.36 0 0 0 0.36-0.36V4.104a0.36 0.36 0 0 0-0.36-0.36M3.098 15.265a2.376 2.376 0 1 1 2.376-2.376a2.378 2.378 0 0 1-2.376 2.376m2.376-4.36A3.094 3.094 0 0 0 2.167 9.934V5.054a0.36 0.36 0 0 0-0.722 0V10.272a3.123 3.123 0 0 0-0.722 0.632V3.112a2.376 2.376 0 0 1 4.752 0Zm8.1 1.739l-0.885 0.52a0.362 0.362 0 0 1-0.366 0l-0.701-0.414L10.92 13.164a0.36 0.36 0 0 1-0.367 0L9.852 12.752l-0.701 0.414a0.36 0.36 0 0 1-0.367 0l-0.884-0.52a0.36 0.36 0 1 1 0.367-0.622l0.701 0.413l0.701-0.413a0.36 0.36 0 0 1 0.366 0l0.701 0.414l0.701-0.414a0.36 0.36 0 0 1 0.367 0l0.701 0.414l0.702-0.414a0.36 0.36 0 0 1 0.366 0.622m0-2.728l-0.885 0.52a0.36 0.36 0 0 1-0.366 0l-0.701-0.414L10.92 10.437a0.36 0.36 0 0 1-0.367 0L9.852 10.024l-0.701 0.414a0.36 0.36 0 0 1-0.367 0l-0.884-0.52a0.36 0.36 0 1 1 0.367-0.622l0.701 0.414L9.669 9.294a0.36 0.36 0 0 1 0.366 0l0.701 0.414L11.437 9.294a0.36 0.36 0 0 1 0.367 0l0.701 0.414L13.206 9.294a0.36 0.36 0 0 1 0.366 0.622m0-2.728l-0.885 0.52a0.36 0.36 0 0 1-0.366 0l-0.701-0.414L10.92 7.71a0.36 0.36 0 0 1-0.367 0L9.852 7.296l-0.701 0.413a0.36 0.36 0 0 1-0.367 0l-0.884-0.52a0.36 0.36 0 0 1 0.367-0.622l0.701 0.414l0.701-0.414a0.36 0.36 0 0 1 0.366 0l0.701 0.414l0.701-0.414a0.36 0.36 0 0 1 0.367 0l0.701 0.414l0.702-0.414a0.36 0.36 0 0 1 0.366 0.622" fill="#FFFFFF"></path>
</svg>