<svg xmlns:xlink="http://www.w3.org/1999/xlink" xmlns="http://www.w3.org/2000/svg" viewBox="0 0 16 16" class="blk icn icn clr-pry" role="presentation" data-use="/cms/svg/site/2r52fvbsqht.16.2411081020592.svg#spray_foam" width="27"  height="27" >
	<path d="M15.632 0H13.278a0.36 0.36 0 0 0-0.264 0.115a4.208 4.208 0 0 0-0.978 2.822a4.371 4.371 0 0 0 0.739 2.531A4.371 4.371-0.006 0 0 12.036 8a4.371 4.371 0 0 0 0.739 2.531a4.371 4.371 0 0 0-0.739 2.531a4.209 4.209 0 0 0 0.978 2.822a0.362 0.362 0 0 0 0.264 0.115H15.632a0.36 0.36 0 0 0 0.36-0.36V0.36a0.36 0.36 0 0 0-0.36-0.36M8.868 3.046h-0.532V2.243a0.36 0.36 0 0 0-0.36-0.36H1.522a1.528 1.528 0 0 0-0.12 3.05V10.175H0.856a0.36 0.36 0 0 0-0.36 0.36v2.331a0.36 0.36 0 0 0 0.36 0.36H1.756V15.639a0.36 0.36 0 1 0 0.723 0V13.23h1.528V15.639a0.36 0.36 0 1 0 0.723 0V13.23h0.901a0.36 0.36 0 0 0 0.36-0.36V10.537a0.36 0.36 0 0 0-0.36-0.36H5.086V4.936h1.16a7.91 7.91 0 0 0 1.741 4.707a0.36 0.36 0 0 0 0.55-0.47A7.266 7.266-0.006 0 1 6.97 4.936h1.005a0.36 0.36 0 0 0 0.36-0.36V3.77h0.532a0.36 0.36 0 1 0 0-0.723" fill="#FFFFFF"></path>
</svg>