<svg xmlns:xlink="http://www.w3.org/1999/xlink" xmlns="http://www.w3.org/2000/svg" viewBox="0 0 24 24" class="blk icn clr-pry" role="presentation" data-use="/cms/svg/site/2r52fvbsqht.24.2411081020590.svg#world_class" width="48"  height="48" >
	<path transform="translate(0 0.002)" d="M21.09 21.232l-2.083-5.285a4.242 4.242 0 0 1-3.687 2.155a1.348 1.348 0 0 0-0.802 0.264a4.136 4.136 0 0 1-1.498 0.71l1.819 4.623a0.486 0.486 0 0 0 0.802 0.144l1.992-2.218l2.967 0.264a0.495 0.495 0 0 0 0.49-0.658M8.685 18.102a4.242 4.242 0 0 1-3.687-2.155L2.914 21.232a0.485 0.485 0 0 0 0.49 0.658l2.967-0.264l1.992 2.218a0.483 0.483 0 0 0 0.802-0.144l1.819-4.623a4.136 4.136 0 0 1-1.498-0.71a1.348 1.348 0 0 0-0.802-0.264m6.633-0.96a3.299 3.299 0 0 0 3.14-2.324a2.381 2.381 0 0 1 0.853-1.2a3.388 3.388 0 0 0 1.196-3.752a2.442 2.442 0 0 1 0-1.488a3.388 3.388 0 0 0-1.196-3.752a2.381 2.381 0 0 1-0.853-1.2a3.299 3.299 0 0 0-3.14-2.324a2.289 2.289 0 0 1-1.372-0.455a3.244 3.244 0 0 0-3.888 0a2.289 2.289 0 0 1-1.372 0.455A3.299 3.299 2.881 0 0 5.546 3.424a2.381 2.381 0 0 1-0.853 1.2a3.388 3.388 0 0 0-1.196 3.752a2.442 2.442 0 0 1 0 1.488a3.388 3.388 0 0 0 1.196 3.752a2.381 2.381 0 0 1 0.853 1.2a3.299 3.299 0 0 0 3.14 2.324a2.289 2.289 0 0 1 1.372 0.455a3.244 3.244 0 0 0 3.888 0a2.289 2.289 0 0 1 1.372-0.455M5.281 9.119A6.721 6.721 2.881 1 1 12.002 15.839A6.728 6.728 2.881 0 1 5.281 9.119m6.601 2.999V14.879a5.787 5.787 0 0 1-0.876-0.084V12.12Zm0.415 2.755V12.12h0.517a0.207 0.207 0 0 0 0.207-0.207V10.576a0.207 0.207 0 0 0-0.207-0.207h-0.312v-3.005h0.664a4.535 4.535 0 0 0 0.998 2.7a0.207 0.207 0 1 0 0.315-0.269a4.168 4.168 0 0 1-0.899-2.429h0.576a0.207 0.207 0 0 0 0.207-0.207v-0.461h0.305a0.207 0.207 0 1 0 0-0.415h-0.305v-0.461a0.207 0.207 0 0 0-0.207-0.207h-3.701a0.876 0.876 0 0 0-0.069 1.749V10.367h-0.312a0.207 0.207 0 0 0-0.207 0.207V11.913a0.207 0.207 0 0 0 0.207 0.207h0.517v2.588a5.765 5.765 0 1 1 1.706 0.166" fill="#0097CE"></path>
</svg>