<svg xmlns:xlink="http://www.w3.org/1999/xlink" xmlns="http://www.w3.org/2000/svg" viewBox="0 0 24 24" role="presentation" data-use="/cms/svg/site/2r52fvbsqht.24.2411081020590.svg#description" width="24"  height="24" >
	<path d="M20.501 3.53A11.999 11.999 0.001 0 0 3.531 3.499A11.59 11.59 0.001 0 0 0.001 11.999A11.999 11.999 0.001 1 0 20.501 3.53M6.674 7.888a0.67 0.67 0 0 1 0.694-0.646h9.102a0.672 0.672 0 0 1 0.694 0.646v0.66a0.672 0.672 0 0 1-0.694 0.646H7.367a0.67 0.67 0 0 1-0.694-0.646ZM15.025 16.233a0.604 0.604 0 0 1-0.552 0.646H7.227a0.604 0.604 0 0 1-0.552-0.646v-0.66a0.604 0.604 0 0 1 0.552-0.646h7.248a0.604 0.604 0 0 1 0.552 0.646Zm3.12-3.842a0.709 0.709 0 0 1-0.758 0.646H7.433a0.708 0.708 0 0 1-0.758-0.646v-0.66a0.708 0.708 0 0 1 0.758-0.646H17.383a0.709 0.709 0 0 1 0.758 0.646Z" fill="#FFFFFF"></path>
</svg>