<svg xmlns:xlink="http://www.w3.org/1999/xlink" xmlns="http://www.w3.org/2000/svg" viewBox="0 0 16 16" class="blk icn icn clr-pry" role="presentation" data-use="/cms/svg/site/2r52fvbsqht.16.2411081020592.svg#attic_crawlspace" width="27"  height="27" >
	<path d="M2.305 15.277a0.006 0.006 0 0 0 0.006-0.005l0 0.005Zm2.236 0l0-0.005a0.006 0.006 0 0 1-0.006 0.005Zm2.232 0l0-0.005a0.006 0.006 0 0 1-0.006 0.005ZM15.919 15.862a0.36 0.36 0 0 1-0.284 0.138H12.812a0.36 0.36 0 1 1 0-0.723h2.363L13.106 6.69l-2.176 9.033a0.36 0.36 0 0 1-0.352 0.277H0.362A0.36 0.36 0.002 0 1 0.012 15.554L1.279 10.299H2.022l0 0.005a0.006 0.006 0 0 1 0.006-0.005l5.638-0.004a0.36 0.36 0 0 0 0.286-0.353V6.193h0V5.508a0.006 0.006 0 0 1 0.006-0.006h-0.006V4.779h5.158a0.382 0.382 0 0 1 0.36 0.313l2.519 10.461a0.36 0.36 0 0 1-0.067 0.309M2.312 15.272a0.006 0.006 0 0 1-0.006 0.005h0.005Zm2.231 0a0.006 0.006 0 0 1-0.006 0.005h0.005Zm2.232 0a0.006 0.006 0 0 1-0.006 0.005h0.005ZM0.002 9.252V0.36A0.36 0.36 0.002 0 1 0.362 0H6.884a0.36 0.36 0 0 1 0.36 0.36V4.779h0.003v0.723h-0.003v3.749a0.36 0.36 0 0 1-0.286 0.353l-6.6 0.008a0.36 0.36 0 0 1-0.357-0.36M1.752 2.54L2.596 3.039a0.36 0.36 0 0 0 0.368 0l0.661-0.389l0.661 0.389a0.36 0.36 0 0 0 0.368 0l0.844-0.497a0.36 0.36 0 1 0-0.368-0.623l-0.661 0.389L3.807 1.916a0.36 0.36 0 0 0-0.368 0l-0.661 0.389L2.122 1.916a0.36 0.36 0 1 0-0.368 0.623m0 2.33l0.844 0.497a0.36 0.36 0 0 0 0.368 0l0.661-0.389l0.661 0.389a0.361 0.361 0 0 0 0.368 0l0.844-0.497a0.36 0.36 0 1 0-0.368-0.623l-0.661 0.389l-0.661-0.389a0.36 0.36 0 0 0-0.368 0l-0.661 0.389L2.122 4.246a0.36 0.36 0 1 0-0.368 0.623m0 2.33l0.844 0.497a0.36 0.36 0 0 0 0.368 0l0.661-0.389l0.661 0.389a0.361 0.361 0 0 0 0.368 0L5.496 7.197a0.36 0.36 0 0 0-0.368-0.623l-0.661 0.389l-0.661-0.389a0.362 0.362 0 0 0-0.368 0l-0.661 0.389L2.122 6.575A0.36 0.36 0.002 1 0 1.752 7.197" fill="#FFFFFF"></path>
</svg>