<svg xmlns:xlink="http://www.w3.org/1999/xlink" xmlns="http://www.w3.org/2000/svg" viewBox="0 0 24 24" class="blk icn clr-pry" role="presentation" data-use="/cms/svg/site/2r52fvbsqht.24.2411081020590.svg#house_search" width="48"  height="48" >
	<path transform="translate(0 0)" d="M19.825 18.453H0.46A0.459 0.459 0 0 0 0 18.911v2.771A0.459 0.459 0 0 0 0.46 22.142H19.825A0.459 0.459 0 0 0 20.283 21.683V18.911a0.459 0.459 0 0 0-0.459-0.459m3.964-4.917l-2.903-2.903A4.584 4.584 0 0 0 13.931 4.71c-0.025 0.025-0.046 0.052-0.071 0.078L10.434 1.964a0.458 0.458 0 0 0-0.583 0L1.298 9.013a2.896 2.896 0 0 0 0.385 5.044v2.677a0.459 0.459 0 0 0 0.917 0V13.745a0.459 0.459 0 0 0-0.316-0.436A1.979 1.979 0 0 1 1.82 9.77a0.442 0.442 0 0 0 0.041-0.031L10.142 2.914L13.295 5.51a4.558 4.558 0 0 0-0.613 1.533L10.434 5.191a0.459 0.459 0 0 0-0.583 0L2.846 10.965a0.459 0.459 0 0 0 0.583 0.707l0.742-0.612V16.733A0.459 0.459 0 0 0 4.631 17.193H15.654a0.459 0.459 0 0 0 0.459-0.459V12.406a4.598 4.598 0 0 0 3.164-0.389a4.54 4.54 0 0 0 0.576-0.35l0.365 0.365l2.535 2.535a0.73 0.73 0 0 0 1.033-1.033M11.615 16.275H8.668V12.35h2.946Zm8.397-6.074a3.346 3.346 0 0 1-0.722 0.687A3.61 3.61 0 0 1 17.538 11.554a3.813 3.813 0 0 1-1.425-0.139a3.597 3.597 0 0 1-2.372-2.312a3.644 3.644 0 0 1 0.861-3.708l0.008-0.01A3.623 3.623 0 0 1 20.01 10.2" fill="#0097CE"></path>
</svg>