<svg xmlns:xlink="http://www.w3.org/1999/xlink" xmlns="http://www.w3.org/2000/svg" viewBox="0 0 24 24" class="blk icn " role="presentation" data-use="/cms/svg/site/2r52fvbsqht.24.2411081020590.svg#arrow_left" width="24"  height="24" >
	<path d="M4.82 12.12c0 0.24 0.24 0.48 0.36 0.72L16.69 23.52c0.24 0.36 0.6 0.48 0.96 0.48 0.48 0 0.84-0.12 1.08-0.36 0.48-0.36 0.6-1.2 0.24-1.68 0-0.12-0.12-0.12-0.24-0.24L8.18 12L18.74 2.16c0.48-0.36 0.6-1.2 0.24-1.68 0-0.12-0.12-0.12-0.24-0.24-0.24-0.12-0.6-0.24-1.08-0.24-0.36 0-0.72 0.12-0.96 0.48L5.18 11.16c-0.24 0.24-0.36 0.6-0.36 0.96h0Z" fill="#EC008C"></path>
</svg>